# xmcd CD database file
#
# Track frame offsets:
#	150
#	11810
#	23495
#	37632
#	50055
#	69150
#	80447
#	92172
#	109725
#	120090
#	130740
#	142672
#
# Disc length: 2107 seconds
#
# Revision: 3
# Processed by: cddbd v1.5PL3 Copyright (c) Steve Scherf et al.
# Submitted via: CDex 1.50Beta7
#
DISCID=8408390c
DTITLE=Lynn Morris - Mama's Hand
DYEAR=1995
DGENRE=Bluegrass
TTITLE0=Walking The Blues
TTITLE1=Freight Train Blues
TTITLE2=It Rains Everywhere I Go
TTITLE3=Tell Me How To Mend A Broken Heart
TTITLE4=Mama's Hand
TTITLE5=Old Rip
TTITLE6=No One Has To Tell Me
TTITLE7=Wishful Thinking
TTITLE8=Dancing In The Hog Trough
TTITLE9=I Can Call Jesus
TTITLE10=Ain't Neccessarily So
TTITLE11=Mason's Lament
EXTD=YEAR: 1995
EXTT0=
EXTT1=
EXTT2=
EXTT3=
EXTT4=
EXTT5=
EXTT6=
EXTT7=
EXTT8=
EXTT9=
EXTT10=
EXTT11=
PLAYORDER=
